<svg version="1.2" xmlns="http://www.w3.org/2000/svg" viewBox="0 0 2750 2100" width="2750" height="2100">
	<title>AdobeStock_358814027</title>
	<style>
		.s0 { fill: #ffffff } 
		.s1 { fill: none;stroke: #363435;stroke-linecap: round;stroke-linejoin: round;stroke-width: 7.2 } 
	</style>
	<g id="_Artboards_">
	</g>
	<g id="Layer 1">
		<path id="&lt;Path&gt;" class="s0" d="m0.5 2100h2750v-2100h-2750z"/>
		<path id="&lt;Path&gt;" class="s1" d="m12.2 1729.7l971.1 4.9c0 0-114.1 56.5-97.1-22.7 22.9-106.4 86.6-393.7 107.3-406.4 25.8-15.9 167.9-17.2 166.7-3.1-1.2 14-106.8 441.8-78.2 444.8 28.5 3 167.8 6 176 13.2 8.3 7.2 38.6 14.9 5.2 16.5-33.3 1.7-401.2-1.5-400-15.6 1.2-14.1 63.9-271.2 50.8-273.8-13.1-2.7-283.8 7.3-288.2-18.7-4.5-26-34.1-724.4-10.5-737.9 23.6-13.5 945.4-25.6 954 3.1 8.6 28.7 1.1 761.1-8.3 767.9-9.4 6.8-450-15-423.4-14.3 26.5 0.6 384.2 34.5 398.8-7.4 14.7-41.9 11-723.3 4.9-730.6-6-7.3-898.2-29.6-910.4 8-12.1 37.7 1.8 683.1 27.4 695.4 25.7 12.4 504.4 25.7 504.4 25.7 0 0 34.7-222.5 19-168.8-15.7 53.7-98.3 395-79.4 407.2 18.9 12.1 839.1 46.2 839.1 46.2 0 0 11.2-27.8 4.8-30.3-4-1.6-321.2-11.6-545.5-19.3-8.7-0.3-320.6 3.7-172.1-15.2 31.4-4.1 69.2-9.2 78.6-13.2 8.6-13 46.9-66.5 100.9-86.4 53.9-19.9 137.2-7.5 171.9 51.3 34.6 58.8 25.1 82.3-21.9 52.3-47.1-30.1-29.7-58.7-20.9-45.3 8.7 13.4 81 67.7 38.2 74.6-42.8 7-173.3 22.7-189.5-48.9-16.2-71.6 34.8-115.4 82.9-124.9 48-9.4 107.6 18.3 109.4 55.2 1.8 37 91.9-58.5 70.5-98.6-21.3-40-11.9 52.5 23.7 13.7 35.5-38.7 79.4-87.8 93.4-134.9 14-47.1-8.4-132-11.8-92.5-3.4 39.4-23.4 242-13.4 297.5 10.1 55.6 22.6 111.2 22.6 111.2 0 0 105.5 39.1 108.9-0.3 3.5-39.4 4.4-279 7.9-347.4 3.4-68.5 5.9-97.4 2.1-110.7-3.8-13.2-61.5 196.2-67.9 127.5-6.5-68.6 1-155.4-21.2-156-22.3-0.5-8-79.3-35.4-106.3-27.4-27.1-206.4 206-158.6 170.2 47.8-35.8 151.7-204.7 169.9-214.8 18.2-10.1 66.3-64.2 55-48.7-11.3 15.5-24.8 42.9-12.7 74.8 12.1 32 27.6 53.5 34.3 33.8 6.6-19.6 2.9-34.2-0.4-25-3.2 9.1 0.3 54 31.1 70.6 30.7 16.6 47.5 65.7 61.1 51.6 13.6-14.2 65.9-47.2 70-65.5 4-18.3 11-56.3 28.9-91.5 17.9-35.1 56.6-124.9 29.4-111.2-27.1 13.8-50 77.8-83.6 66.4-33.7-11.4-78.5-65.3-96.7-84.2-18.1-18.9-90.5-27.4-99.4-10.4-8.9 16.9 53.2 29 65 35.9 11.8 6.9-12.4 28.7-19.7 41.7-7.3 13 59.4-20.4 53-60.2-6.5-39.7-53.2-157.9-38.5-199.7 14.8-41.8 54.8-60.5 108.6-52.4 53.7 8 110.9 18.8 119.3 7.2 8.5-11.7 9.1-47.2 0.5-19.8-8.5 27.4-17.7 61.5 22.9 92.9 40.5 31.3 27.3 112.6 41.8 101.2 14.6-11.5 21.3-89 41.2-62.1 19.9 26.8-61.9 126.9-90.5 128.8-28.5 1.9 110.1-70.4 129.3-148.9 19.1-78.5 19.9-158.7 2.6-186.9-17.3-28.1-68.6-5.8-63.4-8.3 5.1-2.5 24.8-29.6-2.8-54.1-27.5-24.5-83.2-52.4-175.2-32.6-92.1 19.8-179.5 185-154.1 192.3 25.4 7.3 138.5-112.3 129.1-88.8-9.5 23.4-67.7 52.2 4.4 48.9 72-3.3 168.3-58.7 188.7 5.1 20.4 63.8 25.9 157.5 14.8 199.3-11 41.8 0.5 29.4 10.8 53.3 10.2 24 46.4 34.1-10.8 110.3-57.3 76.3-147.9 124-148.7 133.2-0.8 9.2 113.2 83.1 113.2 83.1 0 0 103.8-129.7 104.3-198.7 0.4-69.1-43.3-119.6-36.3-93.7 7 25.8 252.9 67.6 261.4 225.5 8.4 157.8-207.1 585.7-342.9 571.7-80.5-8.3-236.6-463.4-207-462.7 29.6 0.7 126.9-8.8 140.7-40.1 13.8-31.2-10.6-91.1-4.3-35.6 6.3 55.4 145.7 283.6 126.2 295-19.5 11.4-50.9-52.4 5.6-149.8 56.6-97.2 110.2-245.9 143.4-245 33.2 0.8 73.3 49.1 37.8 32.5-35.5-16.7-150.5-98.5-88.4-89 62.1 9.4 185.9 71.7 188.9 123 2.9 51.3 11.7 543.8-15.8 562.9-27.5 19.1-179.3 23.7-133.3 5 45.9-18.7 221.3 0.9 229.7-10.8 8.3-11.6 197.3-448 157.4-496.2-40-48.2-212.3-60.3-193.3-24.4 19.1 36 125.5-0.8 125 89.7-0.6 90.5-102.4 371.6-101.5 403.1 1 31.5 213.8 16 213.8 16"/>
	</g>
</svg>